<svg xmlns="http://www.w3.org/2000/svg" xmlns:xlink="http://www.w3.org/1999/xlink" preserveAspectRatio="xMidYMid" width="28" height="27" viewBox="0 0 28 27">
  <defs>
    <style>
      .cls-1 {
        fill: #fff;
        fill-rule: evenodd;
      }
    </style>
  </defs>
  <path d="M27.364,15.821 C26.510,16.691 25.125,16.691 24.270,15.821 L16.000,7.403 L16.000,25.000 C16.000,26.230 15.214,27.002 14.006,27.002 C12.798,27.002 12.000,26.230 12.000,25.000 L12.000,7.415 L3.742,15.821 C2.888,16.691 1.503,16.691 0.649,15.821 C-0.206,14.952 -0.206,13.542 0.649,12.673 L12.459,0.650 C12.886,0.215 13.446,-0.002 14.006,-0.002 C14.566,-0.002 15.126,0.215 15.553,0.650 L27.364,12.673 C28.218,13.542 28.218,14.952 27.364,15.821 Z" class="cls-1"/>
</svg>
